<svg xmlns="http://www.w3.org/2000/svg" width="208.84" height="23.207" viewBox="0 0 208.84 23.207"><defs><style>.a{fill:#4e8fb6;}.b{fill:#b67cb6;}.c{fill:#212121;}.d{fill:#be8fb6;}</style></defs><g transform="translate(-40 -30)"><g transform="translate(40 30)"><path class="a" d="M316.113,71.511l8.223,11.938h-4.953l-5.715-8.763-5.683,8.763h-4.731l8.128-11.938-7.27-10.668h4.794l4.985,7.588,4.857-7.588h4.731Z" transform="translate(-210.319 -60.812)"/><path class="b" d="M498.6,71.511l8.223,11.938h-4.952l-5.715-8.763-5.682,8.763h-4.731l8.127-11.938L486.6,60.843h4.794l4.984,7.588,4.857-7.588h4.731Z" transform="translate(-297.984 -60.812)"/><g transform="translate(36.294 0.031)"><path class="c" d="M194.945,79.829q.857.032,1.7.032h2.016a10.126,10.126,0,0,0,1.857-.143,1.969,1.969,0,0,0,1.19-.683,3.454,3.454,0,0,0,.635-1.587,16.787,16.787,0,0,0,.191-2.857V60.843h4.222V75.13a17.752,17.752,0,0,1-.365,3.9,5.846,5.846,0,0,1-1.238,2.587,4.909,4.909,0,0,1-2.317,1.445,12.443,12.443,0,0,1-3.6.444q-1.874,0-3.016-.016t-1.969-.047Z" transform="translate(-194.246 -60.843)"/><path class="c" d="M231.4,75.257v8.191H227.21V60.843h8.762q4.381,0,6.286,1.6a6.053,6.053,0,0,1,1.9,4.905v1.4a5.939,5.939,0,0,1-1.968,4.937q-1.969,1.571-6.223,1.571Zm8.54-7.429a5.937,5.937,0,0,0-.206-1.715,1.969,1.969,0,0,0-.7-1.032,3.029,3.029,0,0,0-1.27-.508,10.882,10.882,0,0,0-1.92-.143H231.4V71.67h4.445a10.882,10.882,0,0,0,1.92-.143,3.016,3.016,0,0,0,1.27-.508,1.965,1.965,0,0,0,.7-1.032,5.935,5.935,0,0,0,.206-1.714Z" transform="translate(-210.082 -60.843)"/><path class="c" d="M269.359,83.448V74.082L261.1,60.843h4.7l5.746,9.715,5.651-9.715h4.572L273.581,74.05v9.4Z" transform="translate(-226.364 -60.843)"/></g><g transform="translate(126.608 0.031)"><path class="c" d="M384.057,60.843l-.73,3.651H372.279v5.556h10.858l-.7,3.651H372.279v6.1h11.81l-.7,3.651H368.056V60.843Z" transform="translate(-368.056 -60.843)"/><path class="c" d="M414.131,84.019a13.957,13.957,0,0,1-4.476-.6,6.067,6.067,0,0,1-2.762-1.825,6.992,6.992,0,0,1-1.413-3.016,19.494,19.494,0,0,1-.4-4.175V60.843h4.222V74.4a16.878,16.878,0,0,0,.206,2.921,4.18,4.18,0,0,0,.73,1.826,2.728,2.728,0,0,0,1.461.952,11,11,0,0,0,4.841,0,2.817,2.817,0,0,0,1.492-.952,4.065,4.065,0,0,0,.746-1.826,16.93,16.93,0,0,0,.206-2.921V60.843h4.222V74.4a19.5,19.5,0,0,1-.4,4.175,7,7,0,0,1-1.413,3.016,6.068,6.068,0,0,1-2.778,1.825A14.107,14.107,0,0,1,414.131,84.019Z" transform="translate(-385.843 -60.843)"/><path class="c" d="M455.617,75.1h-4.381v8.35h-4.222V60.843h8.794q4.253,0,6.206,1.54t1.953,5.1v.952a6.617,6.617,0,0,1-1.079,3.985,5.91,5.91,0,0,1-3.207,2.111l5.3,8.921h-4.7Zm4.127-7.238a6.074,6.074,0,0,0-.206-1.746,2.147,2.147,0,0,0-.667-1.048,2.558,2.558,0,0,0-1.238-.508,12.271,12.271,0,0,0-1.921-.127h-4.476v7.111h4.476a10.892,10.892,0,0,0,1.921-.143,2.664,2.664,0,0,0,1.238-.524,2.147,2.147,0,0,0,.667-1.048,6.073,6.073,0,0,0,.206-1.746Z" transform="translate(-405.986 -60.843)"/></g><path class="c" d="M350.4,95.62l-2.791,4.534h3.243l2.791-4.534Z" transform="translate(-231.627 -77.518)"/><path class="d" d="M154.867,65.117l7.163,7.163-7.163,7.163L147.7,72.28l7.163-7.163m0-4.334-11.5,11.5,11.5,11.5,11.5-11.5-11.5-11.5Z" transform="translate(-133.512 -60.783)"/><path class="a" d="M135.6,65.131,143.043,72l-6.872,7.442-7.442-6.872,6.872-7.442m-.173-4.33L124.4,72.746l11.945,11.031,11.031-11.946L135.428,60.8Z" transform="translate(-124.398 -60.792)"/></g></g></svg>