<svg xmlns="http://www.w3.org/2000/svg" width="208.84" height="23.207" viewBox="0 0 208.84 23.207">
<style type="text/css">
	.st0{fill:#BE8FB6;}
	.st1{fill:#4E8FB6;}
	.st2{fill:#212121;}
</style>
<g transform="translate(-40 -30)">
	<g transform="translate(40 30)">
		<path class="st0" d="M105.8,10.7l8.2,11.9h-5l-5.7-8.8l-5.7,8.8h-4.7l8.1-11.9L93.8,0h4.8l5,7.6l4.9-7.6h4.7L105.8,10.7z"/>
		<path class="st1" d="M200.6,10.7l8.2,11.9h-5l-5.7-8.8l-5.7,8.8h-4.7l8.1-11.9L188.6,0h4.8l5,7.6l4.9-7.6h4.7L200.6,10.7z"/>
		<g transform="translate(36.294 0.031)">
			<path class="st2" d="M0.7,19c0.6,0,1.1,0,1.7,0h2c0.6,0,1.2,0,1.9-0.1c0.5-0.1,0.9-0.3,1.2-0.7c0.3-0.5,0.6-1,0.6-1.6
				c0.1-0.9,0.2-1.9,0.2-2.9V0h4.2v14.3c0,1.3-0.1,2.6-0.4,3.9c-0.2,1-0.6,1.8-1.2,2.6c-0.6,0.7-1.4,1.2-2.3,1.4
				c-1.2,0.3-2.4,0.5-3.6,0.4c-1.2,0-2.3,0-3,0s-1.4,0-2,0L0.7,19z"/>
			<path class="st2" d="M21.3,14.4v8.2h-4.2V0h8.8c2.9,0,5,0.5,6.3,1.6c1.3,1.3,2,3.1,1.9,4.9v1.4c0.2,1.9-0.6,3.7-2,4.9
				c-1.3,1-3.4,1.6-6.2,1.6L21.3,14.4z M29.9,7c0-0.6-0.1-1.2-0.2-1.7c-0.1-0.4-0.4-0.8-0.7-1c-0.4-0.3-0.8-0.4-1.3-0.5
				c-0.6-0.1-1.3-0.2-1.9-0.1h-4.4v7.2h4.4c0.6,0,1.3,0,1.9-0.1c0.5-0.1,0.9-0.2,1.3-0.5c0.3-0.3,0.6-0.6,0.7-1
				c0.2-0.6,0.2-1.1,0.2-1.7L29.9,7z"/>
			<path class="st2" d="M43,22.6v-9.4L34.7,0h4.7l5.7,9.7L50.8,0h4.6l-8.2,13.2v9.4L43,22.6z"/>
		</g>
		<g transform="translate(126.608 0.031)">
			<path class="st2" d="M16,0l-0.7,3.7h-11v5.6h10.9l-0.7,3.7H4.2V19H16l-0.7,3.7H0V0H16z"/>
			<path class="st2" d="M28.3,23.2c-1.5,0-3-0.2-4.5-0.6c-1.1-0.3-2-1-2.8-1.8c-0.7-0.9-1.2-1.9-1.4-3c-0.3-1.4-0.4-2.8-0.4-4.2V0
				h4.2v13.6c0,1,0.1,2,0.2,2.9c0.1,0.7,0.3,1.3,0.7,1.8c0.4,0.5,0.9,0.8,1.5,1c1.6,0.4,3.2,0.4,4.8,0c0.6-0.1,1.1-0.5,1.5-1
				c0.4-0.5,0.7-1.2,0.7-1.8c0.2-1,0.2-1.9,0.2-2.9V0h4.2v13.6c0,1.4-0.1,2.8-0.4,4.2c-0.2,1.1-0.7,2.1-1.4,3
				c-0.7,0.9-1.7,1.5-2.8,1.8C31.3,23,29.8,23.2,28.3,23.2z"/>
			<path class="st2" d="M49.6,14.3h-4.4v8.3H41V0h8.8c2.8,0,4.9,0.5,6.2,1.5c1.3,1,2,2.7,2,5.1v1c0.1,1.4-0.3,2.8-1.1,4
				c-0.8,1-1.9,1.8-3.2,2.1l5.3,8.9h-4.7L49.6,14.3z M53.8,7c0-0.6-0.1-1.2-0.2-1.7c-0.1-0.4-0.3-0.8-0.7-1
				c-0.4-0.3-0.8-0.5-1.2-0.5c-0.6-0.1-1.3-0.1-1.9-0.1h-4.5v7.1h4.5c0.6,0,1.3,0,1.9-0.1c0.5-0.1,0.9-0.2,1.2-0.5
				c0.3-0.3,0.6-0.6,0.7-1c0.2-0.6,0.2-1.2,0.2-1.7V7z"/>
		</g>
		<path class="st2" d="M118.8,18.1l-2.8,4.5h3.2l2.8-4.5H118.8z"/>
		<path class="st1" d="M21.4,4.3l7.2,7.2l-7.2,7.2l-7.2-7.2L21.4,4.3 M21.4,0L9.9,11.5L21.4,23l11.5-11.5L21.4,0z"/>
		<path class="st0" d="M11.2,4.3l7.4,6.9l-6.9,7.4l-7.4-6.9L11.2,4.3 M11,0L0,12l11.9,11L23,11L11,0L11,0z"/>
	</g>
</g>
</svg>