<svg xmlns="http://www.w3.org/2000/svg" width="23.516" height="18.225" viewBox="0 0 23.516 18.225"><defs><style>.a{fill:#0071bc;}.b{fill:#2e3192;}.c{fill:#29abe2;}</style></defs><g transform="translate(-78.078 -117.956)"><path class="a" d="M150.071,163.933a8.605,8.605,0,0,1-7.016,0q-.383-.172-.745-.379a8.615,8.615,0,0,1-2.468-2.119q-.262-.329-.492-.684a8.586,8.586,0,0,1,4.23-12.7q.3.009.6.042.22.025.437.064a6.937,6.937,0,0,1,1.589.485c.107.047.212.1.317.149q-.315,0-.622.03a7.255,7.255,0,0,0-2.88.885,7.172,7.172,0,0,0-.724.459,7.311,7.311,0,0,0-.154,11.76q.279.212.579.4a7.292,7.292,0,0,0,3.7,1.088l.143,0,.143,0a8.882,8.882,0,0,0,3.036.531C149.852,163.939,149.962,163.937,150.071,163.933Z" transform="translate(-56.729 -28.5)"/><path class="a" d="M342.485,150.341a8.54,8.54,0,0,1-1.369,4.653,6.958,6.958,0,0,1-2.792,1.171,7.312,7.312,0,0,0-.154-11.76,8.941,8.941,0,0,0-1.883-2.071q-.176-.141-.358-.272l-.129-.092q.143.032.284.069a8.336,8.336,0,0,1,.8.253A8.585,8.585,0,0,1,342.485,150.341Z" transform="translate(-244.07 -22.742)"/><path class="b" d="M243.222,417.089a6.943,6.943,0,0,1-2.452-.708,7.337,7.337,0,0,0,1.112-.091A8.826,8.826,0,0,0,243.222,417.089Z" transform="translate(-154.074 -282.531)"/><path class="b" d="M95.237,126.548a8.569,8.569,0,0,1-3.457,6.884,6.938,6.938,0,0,1-1.589-.485,7.312,7.312,0,0,0,.884-12.223q-.279-.212-.579-.4-.15-.093-.305-.179h0c-.117-.065-.236-.127-.357-.185a7.255,7.255,0,0,0-1.589-.552q-.216-.048-.436-.083l-.156-.023a7.212,7.212,0,0,0-.855-.066l-.142,0a7.311,7.311,0,0,0-4.266,13.247,8.953,8.953,0,0,0,2.37,2.435A8.583,8.583,0,1,1,89.4,118.414q.221.075.436.161.167.066.329.139.383.172.745.379.263.15.514.318c.121.081.241.166.358.253a8.627,8.627,0,0,1,1.6,1.548q.262.329.492.684A8.54,8.54,0,0,1,95.237,126.548Z" transform="translate(0 -0.008)"/><path class="c" d="M215.152,126.54a8.585,8.585,0,0,1-6.685,8.371q-.4.091-.822.144a8.655,8.655,0,0,1-3.255-.213q-.284-.074-.561-.167c-.081-.028-.161-.056-.24-.085s-.131-.049-.2-.076a8.518,8.518,0,0,1-1.589-.836c-.121-.081-.24-.166-.358-.253a8.585,8.585,0,0,1-2.088-11.537,6.964,6.964,0,0,1,2.792-1.171,7.312,7.312,0,0,0,.884,12.223q.176.1.358.185a7.255,7.255,0,0,0,1.589.552q.216.048.436.083a7.341,7.341,0,0,0,1.112.091h.041q.335,0,.663-.03a7.256,7.256,0,0,0,2.88-.885,7.174,7.174,0,0,0,.724-.459,7.311,7.311,0,0,0-4.266-13.247l-.143,0a8.825,8.825,0,0,0-1.859-.454q-.36-.2-.74-.372a8.588,8.588,0,0,1,11.323,8.134Z" transform="translate(-113.558)"/></g></svg>