<svg xmlns="http://www.w3.org/2000/svg" width="13.112" height="12.795" viewBox="0 0 13.112 12.795"><defs><style>.a{fill:#b67cb6;fill-rule:evenodd;}</style></defs><path class="a" d="M1995.766,71.081a6.561,6.561,0,0,0-2.072,12.785c.328.052.433-.151.433-.328V82.43c-1.816.393-2.2-.879-2.2-.879a1.764,1.764,0,0,0-.728-.964c-.6-.406.046-.393.046-.393a1.378,1.378,0,0,1,1,.675,1.408,1.408,0,0,0,1.908.544,1.416,1.416,0,0,1,.413-.879c-1.455-.164-2.983-.728-2.983-3.226a2.539,2.539,0,0,1,.675-1.777,2.345,2.345,0,0,1,.065-1.731s.551-.177,1.8.669a6.317,6.317,0,0,1,3.278,0c1.252-.846,1.8-.669,1.8-.669a2.344,2.344,0,0,1,.066,1.731,2.54,2.54,0,0,1,.675,1.777c0,2.5-1.534,3.055-3,3.219a1.564,1.564,0,0,1,.452,1.213v1.8c0,.177.1.387.439.328a6.562,6.562,0,0,0-2.078-12.785Z" transform="translate(-1989.21 -71.081)"/></svg>