<svg id="レイヤー_1" data-name="レイヤー 1" xmlns="http://www.w3.org/2000/svg" xmlns:xlink="http://www.w3.org/1999/xlink" viewBox="0 0 600 600"><defs><style>.cls-1{fill:#c77fff;}.cls-2{fill:#fff;}.cls-3{fill:url(#名称未設定グラデーション_97);}.cls-4{fill:url(#名称未設定グラデーション_97-2);}.cls-5{fill:url(#名称未設定グラデーション_97-3);}.cls-6{fill:url(#名称未設定グラデーション_97-4);}.cls-7{fill:url(#名称未設定グラデーション_97-5);}.cls-8{fill:url(#名称未設定グラデーション_28);}</style><linearGradient id="名称未設定グラデーション_97" x1="-145.01" y1="-340.97" x2="-103.5" y2="-348.29" gradientTransform="matrix(-0.81, 0.59, -0.59, -0.81, 0.06, -0.06)" gradientUnits="userSpaceOnUse"><stop offset="0" stop-color="#fff"/><stop offset="0.34" stop-color="#e1e1ff"/><stop offset="1" stop-color="#fff"/></linearGradient><linearGradient id="名称未設定グラデーション_97-2" x1="218.28" y1="-253.82" x2="259.79" y2="-261.14" gradientTransform="translate(-0.03 -0.06) rotate(72)" xlink:href="#名称未設定グラデーション_97"/><linearGradient id="名称未設定グラデーション_97-3" x1="247.66" y1="118.62" x2="289.17" y2="111.3" gradientTransform="matrix(1, 0, 0, 1, 0, 0)" xlink:href="#名称未設定グラデーション_97"/><linearGradient id="名称未設定グラデーション_97-4" x1="-97.47" y1="261.65" x2="-55.96" y2="254.33" gradientTransform="matrix(0.31, -0.95, 0.95, 0.31, -0.01, 0.03)" xlink:href="#名称未設定グラデーション_97"/><linearGradient id="名称未設定グラデーション_97-5" x1="-340.15" y1="-22.39" x2="-298.65" y2="-29.71" gradientTransform="matrix(-0.81, -0.59, 0.59, -0.81, 0, 0)" xlink:href="#名称未設定グラデーション_97"/><radialGradient id="名称未設定グラデーション_28" cx="299.28" cy="36.81" r="45" gradientTransform="translate(71.48 141.46) scale(0.67 0.67)" gradientUnits="userSpaceOnUse"><stop offset="0"/><stop offset="0" stop-color="#ffea2e"/><stop offset="1" stop-color="#fff" stop-opacity="0"/></radialGradient></defs><circle class="cls-1" cx="300" cy="300" r="300"/><path class="cls-2" d="M200,511.25l37.94-26c14.52,25.12,33.25,35.25,55.74,35.25,34.66,0,52-17.62,52-65.21V235H400V460.14C400,518.3,370,565,299.77,565,253.4,565,221.55,546.94,200,511.25Z"/><path class="cls-3" d="M268,185.77a52.66,52.66,0,0,1,1.36-17.58,3.66,3.66,0,0,1,4.18-2.66,75.52,75.52,0,0,1,16.59,5.28c32.29,14.5,49.42,48.57,55,61.76a3.56,3.56,0,0,1-3.79,4.73C283.28,230.49,269.79,204.63,268,185.77Z"/><path class="cls-4" d="M288.89,175a52.72,52.72,0,0,1-16.3-6.72,3.66,3.66,0,0,1-1.24-4.8,75.22,75.22,0,0,1,10.14-14.14c23.77-26.23,61.47-32,75.75-33.25a3.56,3.56,0,0,1,3.32,5.07C336.14,174.26,307.38,179.09,288.89,175Z"/><path class="cls-5" d="M285.13,151.75a52.83,52.83,0,0,1-11.43,13.43,3.66,3.66,0,0,1-4.95-.31,74.87,74.87,0,0,1-10.32-14c-17.6-30.71-11.43-68.34-8.21-82.31A3.56,3.56,0,0,1,256.07,67C299.05,106.59,294.76,135.44,285.13,151.75Z"/><path class="cls-6" d="M261.8,148.2a52.72,52.72,0,0,1,9.25,15,3.67,3.67,0,0,1-1.83,4.62,75.33,75.33,0,0,1-16.52,5.48c-34.64,7.24-68.53-10.25-80.82-17.63a3.55,3.55,0,0,1,.3-6.05C223.16,121,249.27,134,261.8,148.2Z"/><path class="cls-7" d="M251.2,169.23a52.62,52.62,0,0,1,17.14-4.15,3.65,3.65,0,0,1,3.82,3.16,75.13,75.13,0,0,1,.11,17.4c-3.81,35.19-30.93,62-41.74,71.42a3.56,3.56,0,0,1-5.67-2.15C213.4,197.58,233.82,176.76,251.2,169.23Z"/><circle class="cls-8" cx="271" cy="166" r="30"/></svg>