<svg width="208" height="23" viewBox="0 0 208 23" fill="none" xmlns="http://www.w3.org/2000/svg">
<g clip-path="url(#clip0_1_42)">
<path d="M18.6484 0.960938V15.4771C18.6484 17.8888 17.8916 19.7961 16.3779 21.1987C14.8743 22.6014 12.8158 23.3027 10.2021 23.3027C7.62891 23.3027 5.58545 22.6216 4.07178 21.2593C2.55811 19.897 1.78613 18.0251 1.75586 15.6436V0.960938H6.29688V15.5073C6.29688 16.9504 6.63997 18.0049 7.32617 18.6709C8.02246 19.3268 8.98112 19.6548 10.2021 19.6548C12.7552 19.6548 14.0519 18.3127 14.0923 15.6284V0.960938H18.6484ZM27.0408 6.62207L27.1771 8.51416C28.3476 7.05094 29.9168 6.31934 31.8846 6.31934C33.6203 6.31934 34.9119 6.82894 35.7596 7.84814C36.6072 8.86735 37.0412 10.3911 37.0613 12.4194V23H32.6868V12.5254C32.6868 11.597 32.485 10.9259 32.0814 10.5122C31.6777 10.0884 31.0067 9.87646 30.0682 9.87646C28.8371 9.87646 27.9137 10.4012 27.2982 11.4507V23H22.9237V6.62207H27.0408ZM58.2897 0.960938V15.4771C58.2897 17.8888 57.5329 19.7961 56.0192 21.1987C54.5156 22.6014 52.457 23.3027 49.8434 23.3027C47.2702 23.3027 45.2267 22.6216 43.713 21.2593C42.1994 19.897 41.4274 18.0251 41.3971 15.6436V0.960938H45.9381V15.5073C45.9381 16.9504 46.2812 18.0049 46.9674 18.6709C47.6637 19.3268 48.6224 19.6548 49.8434 19.6548C52.3965 19.6548 53.6932 18.3127 53.7335 15.6284V0.960938H58.2897ZM66.6821 6.62207L66.8183 8.51416C67.9889 7.05094 69.5581 6.31934 71.5258 6.31934C73.2615 6.31934 74.5532 6.82894 75.4008 7.84814C76.2485 8.86735 76.6824 10.3911 76.7026 12.4194V23H72.3281V12.5254C72.3281 11.597 72.1263 10.9259 71.7226 10.5122C71.319 10.0884 70.6479 9.87646 69.7094 9.87646C68.4783 9.87646 67.555 10.4012 66.9394 11.4507V23H62.5649V6.62207H66.6821ZM85.5794 23H81.1897V6.62207H85.5794V23ZM80.9324 2.38379C80.9324 1.72786 81.1494 1.18799 81.5833 0.76416C82.0273 0.340332 82.6277 0.128418 83.3846 0.128418C84.1313 0.128418 84.7267 0.340332 85.1707 0.76416C85.6147 1.18799 85.8367 1.72786 85.8367 2.38379C85.8367 3.0498 85.6096 3.59473 85.1555 4.01855C84.7115 4.44238 84.1212 4.6543 83.3846 4.6543C82.6479 4.6543 82.0525 4.44238 81.5984 4.01855C81.1544 3.59473 80.9324 3.0498 80.9324 2.38379ZM103.674 13.9937H94.9557V23H90.4146V0.960938H104.764V4.63916H94.9557V10.3306H103.674V13.9937ZM112.657 23H108.268V6.62207H112.657V23ZM108.01 2.38379C108.01 1.72786 108.227 1.18799 108.661 0.76416C109.105 0.340332 109.705 0.128418 110.462 0.128418C111.209 0.128418 111.804 0.340332 112.248 0.76416C112.692 1.18799 112.914 1.72786 112.914 2.38379C112.914 3.0498 112.687 3.59473 112.233 4.01855C111.789 4.44238 111.199 4.6543 110.462 4.6543C109.726 4.6543 109.13 4.44238 108.676 4.01855C108.232 3.59473 108.01 3.0498 108.01 2.38379Z" fill="black"/>
</g>
<defs>
<clipPath id="clip0_1_42">
<rect width="208" height="23" fill="white"/>
</clipPath>
</defs>
</svg>
